HIERARCHY
ROOT Hips
{
	OFFSET 0.000000 97.167313 0.000000
	CHANNELS 6 Xposition Yposition Zposition Xrotation Yrotation Zrotation
	JOINT Spine
	{
		OFFSET 0.000000 13.784798 0.064400
		CHANNELS 3 Xrotation Yrotation Zrotation
		JOINT Spine1
		{
			OFFSET 0.000000 12.037903 0.404700
			CHANNELS 3 Xrotation Yrotation Zrotation
			JOINT Spine2
			{
				OFFSET 0.000000 17.795601 0.420200
				CHANNELS 3 Xrotation Yrotation Zrotation
				JOINT Neck
				{
					OFFSET 0.000000 39.131302 11.954600
					CHANNELS 3 Xrotation Yrotation Zrotation
					JOINT Head
					{
						OFFSET 0.000000 14.456192 15.627699
						CHANNELS 3 Xrotation Yrotation Zrotation
						JOINT HeadTop_End
						{
							OFFSET 0.000000 15.703506 7.603401
							CHANNELS 3 Xrotation Yrotation Zrotation
							End Site
							{
								OFFSET 0.000000 17.447403 0.000000
							}
						}
					}
				}
				JOINT LeftShoulder
				{
					OFFSET 17.399500 24.608795 1.168800
					CHANNELS 3 Xrotation Yrotation Zrotation
					JOINT LeftArm
					{
						OFFSET 18.980635 5.765305 1.818600
						CHANNELS 3 Xrotation Yrotation Zrotation
						JOINT LeftForeArm
						{
							OFFSET 49.290169 0.000000 0.000000
							CHANNELS 3 Xrotation Yrotation Zrotation
							JOINT LeftHand
							{
								OFFSET 31.562012 0.000000 0.000000
								CHANNELS 3 Xrotation Yrotation Zrotation
								JOINT LeftHandThumb1
								{
									OFFSET 6.133995 -4.388519 7.076070
									CHANNELS 3 Xrotation Yrotation Zrotation
									JOINT LeftHandThumb2
									{
										OFFSET 6.037666 -3.485840 3.485847
										CHANNELS 3 Xrotation Yrotation Zrotation
										JOINT LeftHandThumb3
										{
											OFFSET 6.496506 -3.750763 3.750761
											CHANNELS 3 Xrotation Yrotation Zrotation
											JOINT LeftHandThumb4
											{
												OFFSET 5.616882 -3.242905 3.242910
												CHANNELS 3 Xrotation Yrotation Zrotation
												End Site
												{
													OFFSET -1.254608 7.132141 0.375429
												}
											}
										}
									}
								}
								JOINT LeftHandPinky1
								{
									OFFSET 18.920792 -0.453171 -11.426712
									CHANNELS 3 Xrotation Yrotation Zrotation
									JOINT LeftHandPinky2
									{
										OFFSET 4.919586 0.000000 0.000000
										CHANNELS 3 Xrotation Yrotation Zrotation
										JOINT LeftHandPinky3
										{
											OFFSET 5.233047 0.000000 0.000000
											CHANNELS 3 Xrotation Yrotation Zrotation
											JOINT LeftHandPinky4
											{
												OFFSET 5.571716 0.000000 0.000000
												CHANNELS 3 Xrotation Yrotation Zrotation
												End Site
												{
													OFFSET -3.459808 4.342407 -0.466164
												}
											}
										}
									}
								}
								JOINT LeftHandRing1
								{
									OFFSET 22.726120 -0.094986 -6.500475
									CHANNELS 3 Xrotation Yrotation Zrotation
									JOINT LeftHandRing2
									{
										OFFSET 6.408615 0.000000 0.000000
										CHANNELS 3 Xrotation Yrotation Zrotation
										JOINT LeftHandRing3
										{
											OFFSET 6.150223 0.000000 0.000000
											CHANNELS 3 Xrotation Yrotation Zrotation
											JOINT LeftHandRing4
											{
												OFFSET 6.145386 0.000000 0.000000
												CHANNELS 3 Xrotation Yrotation Zrotation
												End Site
												{
													OFFSET -3.671402 4.923981 -0.202372
												}
											}
										}
									}
								}
								JOINT LeftHandMiddle1
								{
									OFFSET 23.373947 0.000000 0.000001
									CHANNELS 3 Xrotation Yrotation Zrotation
									JOINT LeftHandMiddle2
									{
										OFFSET 6.996567 0.000000 0.000000
										CHANNELS 3 Xrotation Yrotation Zrotation
										JOINT LeftHandMiddle3
										{
											OFFSET 7.015945 0.000000 0.000000
											CHANNELS 3 Xrotation Yrotation Zrotation
											JOINT LeftHandMiddle4
											{
												OFFSET 7.721573 0.000000 0.000000
												CHANNELS 3 Xrotation Yrotation Zrotation
												End Site
												{
													OFFSET -4.651108 6.158463 0.251582
												}
											}
										}
									}
								}
								JOINT LeftHandIndex1
								{
									OFFSET 21.310577 -0.490082 6.209344
									CHANNELS 3 Xrotation Yrotation Zrotation
									JOINT LeftHandIndex2
									{
										OFFSET 7.536453 0.000000 0.000000
										CHANNELS 3 Xrotation Yrotation Zrotation
										JOINT LeftHandIndex3
										{
											OFFSET 7.512344 0.000000 0.000000
											CHANNELS 3 Xrotation Yrotation Zrotation
											JOINT LeftHandIndex4
											{
												OFFSET 10.212402 0.000000 0.000001
												CHANNELS 3 Xrotation Yrotation Zrotation
												End Site
												{
													OFFSET -5.180801 8.690506 1.388433
												}
											}
										}
									}
								}
							}
						}
					}
				}
				JOINT RightShoulder
				{
					OFFSET -17.399500 24.608795 1.168800
					CHANNELS 3 Xrotation Yrotation Zrotation
					JOINT RightArm
					{
						OFFSET -18.980635 5.765305 1.818600
						CHANNELS 3 Xrotation Yrotation Zrotation
						JOINT RightForeArm
						{
							OFFSET -49.290169 0.000000 0.000000
							CHANNELS 3 Xrotation Yrotation Zrotation
							JOINT RightHand
							{
								OFFSET -31.562012 0.000000 0.000000
								CHANNELS 3 Xrotation Yrotation Zrotation
								JOINT RightHandThumb1
								{
									OFFSET -6.133995 -4.388519 7.076070
									CHANNELS 3 Xrotation Yrotation Zrotation
									JOINT RightHandThumb2
									{
										OFFSET -6.037666 -3.485840 3.485847
										CHANNELS 3 Xrotation Yrotation Zrotation
										JOINT RightHandThumb3
										{
											OFFSET -6.496506 -3.750763 3.750761
											CHANNELS 3 Xrotation Yrotation Zrotation
											JOINT RightHandThumb4
											{
												OFFSET -5.616882 -3.242905 3.242910
												CHANNELS 3 Xrotation Yrotation Zrotation
												End Site
												{
													OFFSET 1.254608 7.132141 0.375429
												}
											}
										}
									}
								}
								JOINT RightHandIndex1
								{
									OFFSET -21.310577 -0.490082 6.209344
									CHANNELS 3 Xrotation Yrotation Zrotation
									JOINT RightHandIndex2
									{
										OFFSET -7.536453 0.000000 0.000000
										CHANNELS 3 Xrotation Yrotation Zrotation
										JOINT RightHandIndex3
										{
											OFFSET -7.512344 0.000000 0.000000
											CHANNELS 3 Xrotation Yrotation Zrotation
											JOINT RightHandIndex4
											{
												OFFSET -10.212402 0.000000 0.000001
												CHANNELS 3 Xrotation Yrotation Zrotation
												End Site
												{
													OFFSET 5.180801 8.690506 1.388433
												}
											}
										}
									}
								}
								JOINT RightHandMiddle1
								{
									OFFSET -23.373947 0.000000 0.000001
									CHANNELS 3 Xrotation Yrotation Zrotation
									JOINT RightHandMiddle2
									{
										OFFSET -6.996567 0.000000 0.000000
										CHANNELS 3 Xrotation Yrotation Zrotation
										JOINT RightHandMiddle3
										{
											OFFSET -7.015945 0.000000 0.000000
											CHANNELS 3 Xrotation Yrotation Zrotation
											JOINT RightHandMiddle4
											{
												OFFSET -7.721573 0.000000 0.000000
												CHANNELS 3 Xrotation Yrotation Zrotation
												End Site
												{
													OFFSET 4.651108 6.158463 0.251582
												}
											}
										}
									}
								}
								JOINT RightHandRing1
								{
									OFFSET -22.726120 -0.094986 -6.500475
									CHANNELS 3 Xrotation Yrotation Zrotation
									JOINT RightHandRing2
									{
										OFFSET -6.408615 0.000000 0.000000
										CHANNELS 3 Xrotation Yrotation Zrotation
										JOINT RightHandRing3
										{
											OFFSET -6.150223 0.000000 0.000000
											CHANNELS 3 Xrotation Yrotation Zrotation
											JOINT RightHandRing4
											{
												OFFSET -6.145386 0.000000 0.000000
												CHANNELS 3 Xrotation Yrotation Zrotation
												End Site
												{
													OFFSET 3.671402 4.923981 -0.202372
												}
											}
										}
									}
								}
								JOINT RightHandPinky1
								{
									OFFSET -18.920792 -0.453171 -11.426712
									CHANNELS 3 Xrotation Yrotation Zrotation
									JOINT RightHandPinky2
									{
										OFFSET -4.919586 0.000000 0.000000
										CHANNELS 3 Xrotation Yrotation Zrotation
										JOINT RightHandPinky3
										{
											OFFSET -5.233047 0.000000 0.000000
											CHANNELS 3 Xrotation Yrotation Zrotation
											JOINT RightHandPinky4
											{
												OFFSET -5.571716 0.000000 0.000000
												CHANNELS 3 Xrotation Yrotation Zrotation
												End Site
												{
													OFFSET 3.459808 4.342407 -0.466164
												}
											}
										}
									}
								}
							}
						}
					}
				}
			}
		}
	}
	JOINT LeftUpLeg
	{
		OFFSET 19.899099 -7.885101 -3.429500
		CHANNELS 3 Xrotation Yrotation Zrotation
		JOINT LeftLeg
		{
			OFFSET 1.745560 -36.997807 10.304700
			CHANNELS 3 Xrotation Yrotation Zrotation
			JOINT LeftFoot
			{
				OFFSET -1.745558 -29.803308 -13.615400
				CHANNELS 3 Xrotation Yrotation Zrotation
				JOINT LeftToeBase
				{
					OFFSET 1.181900 -18.539904 15.226099
					CHANNELS 3 Xrotation Yrotation Zrotation
					JOINT LeftToe_End
					{
						OFFSET -0.863701 1.402801 16.534700
						CHANNELS 3 Xrotation Yrotation Zrotation
						End Site
						{
							OFFSET 0.000000 16.616566 0.000000
						}
					}
				}
			}
		}
	}
	JOINT RightUpLeg
	{
		OFFSET -19.899099 -7.885101 -3.429500
		CHANNELS 3 Xrotation Yrotation Zrotation
		JOINT RightLeg
		{
			OFFSET -1.745560 -36.997807 10.304700
			CHANNELS 3 Xrotation Yrotation Zrotation
			JOINT RightFoot
			{
				OFFSET 1.745558 -29.803308 -13.615400
				CHANNELS 3 Xrotation Yrotation Zrotation
				JOINT RightToeBase
				{
					OFFSET -1.181900 -18.539904 15.226099
					CHANNELS 3 Xrotation Yrotation Zrotation
					JOINT RightToe_End
					{
						OFFSET 0.863701 1.402801 16.534700
						CHANNELS 3 Xrotation Yrotation Zrotation
						End Site
						{
							OFFSET 0.000000 16.616566 0.000000
						}
					}
				}
			}
		}
	}
}
MOTION
Frames: 4
Frame Time: 0.033333
-1.682689 74.673172 59.646896 12.068639 -8.285147 -0.856132 1.382888 1.117469 -4.432459 16.539076 0.433078 0.959678 16.546646 0.387560 1.044355 -10.646670 -5.295210 14.866101 10.020478 -21.822943 -22.739679 0.000001 -0.000002 -0.000001 -0.584170 13.115420 -1.579813 -1.291488 -2.945147 -78.624596 92.837113 -11.300258 151.905593 5.000539 -18.930639 34.543661 -1.480542 0.111447 14.814101 15.035603 7.261414 1.868179 61.969466 14.049261 -58.069592 0.000001 0.000002 -0.000007 28.868843 21.490270 -83.761444 0.107812 3.213853 -23.438651 0.122444 3.451888 -25.064950 -0.000003 0.000001 -0.000000 14.848643 28.863662 -48.466718 0.079785 3.804569 -28.260386 0.747163 5.245811 -39.876205 -0.000002 0.000000 0.000003 15.328413 23.687663 -63.822941 -0.288770 4.386838 -31.901730 0.245767 5.457903 -40.770881 0.000001 0.000000 0.000009 4.958890 16.210674 -41.901462 1.040877 4.685845 -36.385920 0.045023 -0.595044 4.432987 -0.000001 0.000003 0.000001 -0.611386 -16.122586 2.669441 -29.787452 6.621821 91.443843 119.268886 37.139304 -149.825131 -6.927650 3.604735 -11.183763 -1.480612 -0.120769 -14.815498 9.642358 7.075241 -13.755310 57.898066 2.790432 33.021137 -0.000001 0.000002 0.000003 0.126814 -10.897505 56.142775 2.572489 -6.526867 54.401217 0.164136 -2.688866 20.104179 -0.000001 -0.000001 -0.000001 0.610936 -12.273572 68.094568 -0.130330 -4.994464 36.410362 -0.264306 -2.472852 18.347992 -0.000001 0.000003 -0.000001 5.949366 -14.982239 72.042616 0.151251 -4.038762 30.060346 -0.090864 -2.495678 18.489845 0.000005 0.000002 -0.000003 1.805851 -12.463035 55.446970 0.246772 -3.710500 27.177534 0.072119 0.591276 -4.332434 0.000000 -0.000003 0.000000 -37.378115 4.102127 29.383443 60.658514 -0.375487 -4.146893 -26.662738 6.307176 -14.027231 -3.734498 3.107008 -5.123751 -0.000000 0.000001 -0.000000 -18.839221 -8.486428 -26.161166 49.929509 -17.715948 0.187612 -20.319260 -13.987873 36.368240 0.970898 1.370394 3.324124 0.000000 0.000002 -0.000000 
-1.673102 75.083672 59.660618 12.367488 -7.638093 -0.461154 2.341947 0.781181 -4.264052 16.030398 0.479941 1.170254 16.035027 0.455870 1.253285 -12.425593 -6.023648 14.988068 7.878616 -24.183125 -28.073737 0.000001 0.000000 0.000001 -0.638025 12.916257 -1.106092 1.333736 -1.768643 -77.770030 94.609117 -11.970631 151.243980 5.649341 -18.267998 38.589930 -1.480535 0.111438 14.814103 14.209262 5.080205 2.744873 59.676278 14.577924 -56.090111 -0.000001 0.000001 -0.000006 29.729792 21.438516 -84.525783 0.105552 3.204546 -23.369231 0.096067 3.354015 -24.335488 0.000001 -0.000000 -0.000000 15.051819 28.764546 -49.161745 0.071240 3.774631 -28.031627 0.766348 5.282169 -40.181726 -0.000003 -0.000001 0.000003 15.514150 23.535807 -64.919480 -0.289457 4.383702 -31.878812 0.233660 5.426126 -40.520248 0.000001 -0.000000 0.000004 6.226194 17.598005 -43.694199 1.025967 4.660634 -36.166856 0.040878 -0.571822 4.258074 -0.000001 0.000001 0.000001 -0.605442 -15.929965 2.634267 -28.997626 6.061874 91.291072 120.200920 36.302192 -150.899970 -6.989315 3.190015 -10.901354 -1.480611 -0.120778 -14.815505 9.934550 6.800480 -12.572152 57.308012 2.655747 32.967202 -0.000000 0.000005 0.000003 0.173024 -10.963727 56.471775 2.488174 -6.452011 53.554974 0.168589 -2.706179 20.236794 -0.000002 -0.000003 -0.000002 0.549074 -12.300414 68.834660 -0.134085 -4.982092 36.317318 -0.263910 -2.458997 18.246312 0.000001 0.000001 -0.000008 5.878020 -14.921817 72.889545 0.150645 -4.036889 30.045879 -0.093933 -2.466998 18.276978 0.000003 -0.000002 -0.000007 2.092943 -12.733422 55.874943 0.243190 -3.699140 27.091201 0.106747 0.725372 -5.327399 0.000001 0.000000 -0.000003 -37.737400 3.716692 27.950693 60.127453 0.742837 -3.805999 -25.785689 6.026742 -13.437102 -3.693154 3.467070 -5.927160 0.000000 0.000002 -0.000000 -18.384680 -9.026105 -27.030042 49.091530 -17.565023 1.086197 -20.190705 -13.996699 36.567480 1.072104 1.666051 2.704217 -0.000000 0.000001 0.000000 
-1.696658 75.411636 59.485374 13.052264 -8.855319 0.329497 3.104589 2.289760 -4.571258 15.440807 0.535336 1.338363 15.442165 0.518024 1.421693 -14.450578 -6.161633 17.265697 3.297641 -21.076079 -40.241661 -0.000001 -0.000002 -0.000001 -0.619963 12.416019 -0.965438 2.698406 -0.513592 -78.140895 95.976309 -12.703095 150.910270 6.525028 -19.209282 41.170844 -1.480542 0.111444 14.814110 13.537821 3.190316 3.464542 57.096645 15.094315 -53.536573 0.000001 0.000003 -0.000006 31.095628 21.336654 -85.668720 0.103584 3.196500 -23.309424 0.047899 3.160422 -22.896662 0.000001 0.000001 -0.000000 15.436098 28.984717 -49.658498 0.067500 3.761456 -27.930927 0.758646 5.267649 -40.060781 -0.000000 -0.000001 0.000001 15.660591 23.477339 -65.632818 -0.294199 4.361814 -31.718292 0.211071 5.365672 -40.044600 0.000002 -0.000000 0.000008 7.361895 18.743115 -45.048806 0.971772 4.567075 -35.357775 0.044085 -0.589834 4.393689 -0.000001 -0.000001 0.000003 -0.599487 -15.341648 2.448769 -28.331951 5.560319 91.144298 119.486209 34.737932 -151.418354 -6.764005 2.972128 -13.688866 -1.480602 -0.120787 -14.815510 10.171670 6.540297 -11.444032 56.723997 2.552661 32.672241 -0.000003 0.000000 0.000001 0.157716 -10.948269 56.451421 2.388028 -6.360111 52.535701 0.170238 -2.712529 20.285343 -0.000001 -0.000002 0.000003 0.590009 -12.369905 69.424187 -0.146439 -4.940691 36.006934 -0.262420 -2.412290 17.902838 0.000002 -0.000000 -0.000001 5.666093 -14.816470 73.076843 0.146847 -4.025073 29.954454 -0.097511 -2.432242 18.018941 -0.000001 0.000003 -0.000005 2.199930 -12.826189 55.876842 0.234264 -3.670535 26.873608 0.138495 0.840541 -6.186587 -0.000003 -0.000000 0.000002 -36.940576 4.361941 27.486928 59.071110 2.023563 -4.378032 -26.165208 6.219486 -13.510053 -2.916092 3.507059 -6.140460 0.000000 -0.000001 0.000000 -19.942539 -8.981840 -27.932945 48.418822 -16.151493 1.386912 -20.511084 -13.797644 36.104015 1.987285 1.850173 1.735038 -0.000000 0.000002 -0.000000 
-1.648507 75.554657 59.241821 13.880388 -11.101184 1.155951 3.820053 4.815485 -5.023654 14.711970 0.599722 1.480807 14.709856 0.583117 1.563411 -16.458464 -6.015677 20.575871 0.399209 -13.082603 -51.780938 -0.000003 -0.000001 -0.000001 -0.561733 11.642954 -0.958906 3.384552 0.842057 -79.220721 97.293886 -13.582546 150.957972 7.365167 -21.166223 42.123774 -1.480545 0.111427 14.814091 12.920057 1.323723 4.141916 54.649471 15.541139 -50.929842 -0.000000 0.000001 0.000001 32.482713 20.974910 -87.295172 0.107364 3.212005 -23.425203 -0.009767 2.895493 -20.943605 -0.000001 0.000003 -0.000000 16.436348 29.368516 -51.058430 0.070053 3.770487 -28.000338 0.714150 5.182249 -39.346261 -0.000000 -0.000000 0.000005 16.344803 23.468820 -67.168750 -0.303425 4.318429 -31.399848 0.180110 5.280079 -39.373449 -0.000001 0.000001 0.000004 8.733656 19.863782 -46.904600 0.885733 4.411836 -34.030635 0.050172 -0.623314 4.645730 -0.000001 -0.000000 0.000001 -0.599843 -14.421434 2.072678 -27.578344 5.211609 90.439949 117.550875 32.626871 -151.578932 -6.534267 1.930822 -18.264455 -1.480596 -0.120785 -14.815498 10.352837 6.311967 -10.443800 56.191649 2.482398 32.238069 0.000001 0.000000 0.000001 0.154059 -10.947408 56.477284 2.309601 -6.285775 51.725374 0.169861 -2.711136 20.274658 -0.000001 0.000001 0.000008 0.675706 -12.455769 69.931787 -0.161473 -4.889286 35.622213 -0.260115 -2.352083 17.460361 0.000001 -0.000001 -0.000004 5.440892 -14.713665 73.043491 0.143869 -4.015667 29.881808 -0.100708 -2.399734 17.778089 -0.000002 0.000003 0.000000 2.144117 -12.773322 55.815807 0.224230 -3.637794 26.625571 0.167546 0.940399 -6.935138 0.000000 -0.000001 -0.000001 -35.512244 5.579140 28.027010 57.791802 2.671998 -5.539355 -27.201990 6.810785 -14.474108 -2.086059 3.178626 -5.298109 -0.000000 -0.000001 0.000000 -22.305829 -8.096917 -28.018320 47.772266 -14.805328 0.475304 -20.753035 -13.641276 36.005458 3.206192 1.594386 0.753365 -0.000000 0.000003 -0.000000 
